name D:\school\WTK\thesis\model\3dpredictsim\Results\Batchsim_tmt_linear\Pog_s1_tmt_bCst_d02_k250_ig24.mot
datacolumns 128
datarows 4
range 0.00000000 0.03258673
endheader
time	pelvis_tilt	pelvis_list	pelvis_rotation	pelvis_tx	pelvis_ty	pelvis_tz	hip_flexion_l	hip_adduction_l	hip_rotation_l	hip_flexion_r	hip_adduction_r	hip_rotation_r	knee_angle_l	knee_angle_r	ankle_angle_l	ankle_angle_r	subtalar_angle_l	subtalar_angle_r	tmt_angle_l	tmt_angle_r	mtp_angle_l	mtp_angle_r	lumbar_extension	lumbar_bending	lumbar_rotation	arm_flex_l	arm_add_l	arm_rot_l	arm_flex_r	arm_add_r	arm_rot_r	elbow_flex_l	elbow_flex_r	pro_sup_l	pro_sup_r	glut_med1_l/activation	glut_med2_l/activation	glut_med3_l/activation	glut_min1_l/activation	glut_min2_l/activation	glut_min3_l/activation	semimem_l/activation	semiten_l/activation	bifemlh_l/activation	bifemsh_l/activation	sar_l/activation	add_long_l/activation	add_brev_l/activation	add_mag1_l/activation	add_mag2_l/activation	add_mag3_l/activation	tfl_l/activation	pect_l/activation	grac_l/activation	glut_max1_l/activation	glut_max2_l/activation	glut_max3_l/activation	iliacus_l/activation	psoas_l/activation	quad_fem_l/activation	gem_l/activation	peri_l/activation	rect_fem_l/activation	vas_med_l/activation	vas_int_l/activation	vas_lat_l/activation	med_gas_l/activation	lat_gas_l/activation	soleus_l/activation	tib_post_l/activation	flex_dig_l/activation	flex_hal_l/activation	tib_ant_l/activation	per_brev_l/activation	per_long_l/activation	per_tert_l/activation	ext_dig_l/activation	ext_hal_l/activation	ercspn_l/activation	intobl_l/activation	extobl_l/activation	glut_med1_r/activation	glut_med2_r/activation	glut_med3_r/activation	glut_min1_r/activation	glut_min2_r/activation	glut_min3_r/activation	semimem_r/activation	semiten_r/activation	bifemlh_r/activation	bifemsh_r/activation	sar_r/activation	add_long_r/activation	add_brev_r/activation	add_mag1_r/activation	add_mag2_r/activation	add_mag3_r/activation	tfl_r/activation	pect_r/activation	grac_r/activation	glut_max1_r/activation	glut_max2_r/activation	glut_max3_r/activation	iliacus_r/activation	psoas_r/activation	quad_fem_r/activation	gem_r/activation	peri_r/activation	rect_fem_r/activation	vas_med_r/activation	vas_int_r/activation	vas_lat_r/activation	med_gas_r/activation	lat_gas_r/activation	soleus_r/activation	tib_post_r/activation	flex_dig_r/activation	flex_hal_r/activation	tib_ant_r/activation	per_brev_r/activation	per_long_r/activation	per_tert_r/activation	ext_dig_r/activation	ext_hal_r/activation	ercspn_r/activation	intobl_r/activation	extobl_r/activation	
          0.00000000	         -2.92799205	         -2.10097095	          5.81476399	          0.00000000	          0.85769988	         -0.00296829	        -18.06984494	         -1.56765346	          7.49953796	         31.74510553	          2.93587260	         -2.75654544	         -7.58769385	        -14.99746738	         -0.15287693	          7.06640068	         10.70720772	         -2.21153744	          3.84473129	          0.14690329	         19.54101586	         -0.08772904	         -1.94801850	          0.61927590	         -1.90133518	          8.07875480	        -13.46095175	         18.92818037	         -8.21658576	        -13.51950627	          9.50375132	         34.74763306	         13.38263595	         86.51662706	         86.51662706	          0.27335592	          0.10287758	          0.06974310	          0.30596527	          0.21295695	          0.10975131	          0.05000274	          0.05000029	          0.05000019	          0.06562831	          0.10870726	          0.09572539	          0.11933840	          0.05000227	          0.05000391	          0.05000175	          0.33146506	          0.09253534	          0.05000091	          0.05000118	          0.05000076	          0.05000090	          0.36988755	          0.57683348	          0.05000010	          0.05000036	          0.05000124	          0.20364689	          0.05253484	          0.07602026	          0.08757925	          0.29198090	          0.39402543	          0.28258657	          0.25476954	          0.27703900	          0.34186471	          0.05000002	          0.05905211	          0.14283883	          0.05000019	          0.05000004	          0.05000015	          0.05000004	          0.05000012	          0.06527706	          0.05905185	          0.05905190	          0.05000014	          0.05905200	          0.05905196	          0.05905178	          0.09990171	          0.05905197	          0.21717741	          0.05000113	          0.05000018	          0.16025651	          0.32137549	          0.10765048	          0.18849927	          0.09934439	          0.05000030	          0.05005781	          0.14299085	          0.05000056	          0.05000028	          0.05693964	          0.06828840	          0.05278193	          0.46107392	          0.30385294	          0.13936404	          0.05000070	          0.12090153	          0.12672090	          0.11040995	          0.06476113	          0.07212591	          0.06242592	          0.05000003	          0.05000060	          0.05000086	          0.52356254	          0.32554694	          0.19122306	          0.28290841	          0.53959056	          0.30030435	          0.06194716	          0.09542122	          0.09651414	
          0.01086224	         -2.92051305	         -2.21257004	          6.08512551	          0.01641097	          0.85664109	         -0.00275463	        -17.81259381	         -1.87710463	          7.27681616	         31.14943630	          3.36188857	         -2.51786863	         -9.75545457	        -15.41878487	         -0.98849197	          6.36779765	         11.70161999	         -2.67170772	          3.72738390	          0.05976340	         20.73327706	         -0.08307371	         -1.74837396	          0.85749021	         -1.97389206	          7.86863803	        -13.47636613	         19.10058087	         -9.26485331	        -13.51194871	          9.32298035	         35.84117016	         13.30650002	         86.51662706	         86.51662706	          0.23145413	          0.08710785	          0.05905267	          0.25906493	          0.18031354	          0.09292795	          0.05000555	          0.05000153	          0.05904988	          0.05556839	          0.09204402	          0.20397031	          0.16740219	          0.18450715	          0.05905613	          0.05905399	          0.28065602	          0.07837907	          0.05905165	          0.05905036	          0.05905277	          0.05905309	          0.31318874	          0.53593560	          0.05905679	          0.05905765	          0.05905189	          0.17243055	          0.16023912	          0.16025265	          0.12805456	          0.24722411	          0.33362658	          0.23926980	          0.21571685	          0.23457295	          0.28946162	          0.05000003	          0.05000027	          0.12094369	          0.05000009	          0.05000002	          0.05000015	          0.06636102	          0.06974248	          0.05905186	          0.05000001	          0.05000006	          0.10456589	          0.05000013	          0.05000011	          0.05000008	          0.08458815	          0.05000020	          0.18388704	          0.05000010	          0.06974441	          0.13569149	          0.29271265	          0.36960211	          0.23030592	          0.09978903	          0.05000045	          0.08234986	          0.15026439	          0.05000797	          0.07955316	          0.12374258	          0.05782083	          0.06974244	          0.65636196	          0.25727637	          0.11800145	          0.06974207	          0.18235105	          0.19329059	          0.16530926	          0.06331232	          0.06974208	          0.05285688	          0.05905184	          0.06976576	          0.06974264	          0.51577629	          0.39369449	          0.23993611	          0.23954275	          0.52100448	          0.25427175	          0.05245149	          0.08079442	          0.08171981	
          0.02172448	         -2.90846455	         -2.32653185	          6.32563934	          0.03309375	          0.85553492	         -0.00255915	        -17.47587830	         -2.17499479	          7.03436994	         30.34253951	          3.68919360	         -2.24312581	        -12.05755055	        -15.88348799	         -1.97376044	          5.87172671	         12.62476745	         -3.14948515	          3.52811669	         -0.12605350	         21.81790917	         -0.17930923	         -1.52766280	          1.10209283	         -2.03639311	          7.56274839	        -13.49312399	         19.17670726	        -10.31553416	        -13.51137586	          9.20113212	         36.93273075	         13.25189146	         86.51662706	         86.51662706	          0.34498849	          0.07375540	          0.05000073	          0.39920086	          0.15267408	          0.07868340	          0.05000306	          0.05000022	          0.05000015	          0.05000557	          0.08237716	          0.17270443	          0.14174174	          0.15622471	          0.05000379	          0.05000190	          0.30410319	          0.06975789	          0.05000148	          0.05000182	          0.05000138	          0.05000123	          0.26518130	          0.49934520	          0.05000421	          0.05000508	          0.05000036	          0.14599925	          0.13567663	          0.13568809	          0.10842554	          0.20932794	          0.28248606	          0.20259292	          0.18265036	          0.19861617	          0.24509110	          0.05000009	          0.09465240	          0.16627548	          0.05000019	          0.07667070	          0.05000032	          0.06890054	          0.05905188	          0.05000010	          0.27126162	          0.28023382	          0.34634471	          0.43794182	          0.26254662	          0.23437817	          0.09319185	          0.08634392	          0.15570010	          0.08674996	          0.05905383	          0.11489183	          0.24784374	          0.31294711	          0.19500328	          0.11137516	          0.05000040	          0.06972781	          0.12723344	          0.14983903	          0.06735921	          0.10477467	          0.05904883	          0.05905192	          0.55575042	          0.21783946	          0.23443109	          0.05905156	          0.15439912	          0.16366179	          0.13996961	          0.05360743	          0.05905161	          0.05456431	          0.05000009	          0.05907169	          0.05905216	          0.57845757	          0.42138628	          0.20315800	          0.49766479	          0.59746030	          0.28851717	          0.06591283	          0.10997124	          0.06919326	
          0.03258673	         -2.89370320	         -2.42995578	          6.52732333	          0.04983840	          0.85440599	         -0.00233482	        -17.04081670	         -2.45253825	          6.79610188	         29.43674013	          3.98781738	         -1.97031070	        -14.50082100	        -16.25623960	         -3.04349674	          5.51470812	         13.49756489	         -3.64223278	          3.20268057	         -0.04602932	         22.66109092	         -0.18773249	         -1.30847845	          1.33902147	         -2.08835474	          7.19616601	        -13.52035986	         19.18120785	        -11.31831973	        -13.51118808	          9.14256341	         38.00226956	         13.18984890	         86.51662706	         86.51662706	          0.29210641	          0.06244971	          0.05000011	          0.33800877	          0.12927124	          0.06662234	          0.05000170	          0.05000012	          0.05000015	          0.05000006	          0.06974997	          0.19430367	          0.20935572	          0.13228346	          0.05319480	          0.13261583	          0.25748858	          0.05907110	          0.05000046	          0.05000438	          0.05000328	          0.05000311	          0.22453256	          0.43541005	          0.05000022	          0.05000082	          0.05000020	          0.12361952	          0.11489124	          0.11489128	          0.11489119	          0.17724074	          0.23918471	          0.17153811	          0.15465252	          0.16817109	          0.20752199	          0.14013981	          0.14695199	          0.15195773	          0.10251612	          0.20428587	          0.12467786	          0.09650572	          0.05000004	          0.05000004	          0.38491419	          0.39163547	          0.40590391	          0.37081186	          0.23346373	          0.27134284	          0.08394506	          0.10834472	          0.13183340	          0.07345245	          0.05000187	          0.09728048	          0.20985265	          0.26497677	          0.19934711	          0.15334863	          0.05000037	          0.05904039	          0.10909832	          0.24031945	          0.17261347	          0.14477620	          0.05000012	          0.05000018	          0.47056129	          0.18444765	          0.19849662	          0.05000005	          0.18150355	          0.21641315	          0.17338893	          0.05000002	          0.05000006	          0.05000000	          0.05000001	          0.05001692	          0.05000045	          0.64771903	          0.35679404	          0.17695108	          0.68869558	          0.62423516	          0.39394616	          0.08365948	          0.09311412	          0.05858687	
